<svg xmlns="http://www.w3.org/2000/svg" xmlns:xlink="http://www.w3.org/1999/xlink" viewBox="0 0 84.4 84.08"><defs><style>.cls-1,.cls-2{stroke:#000;}.cls-1,.cls-2,.cls-3,.cls-4{stroke-miterlimit:10;}.cls-1{fill:url(#linear-gradient);}.cls-2,.cls-4{fill:none;}.cls-2{stroke-width:0.25px;}.cls-3,.cls-4{stroke:#f0eeef;}.cls-3{fill:url(#radial-gradient);}.cls-5{fill:#f0eeef;}</style><linearGradient id="linear-gradient" x1="51.36" y1="92.41" x2="51.36" y2="9.33" gradientUnits="userSpaceOnUse"><stop offset="0" stop-color="#3b2240"/><stop offset="0.25"/><stop offset="0.5"/><stop offset="0.75" stop-color="#1c0d20"/><stop offset="1" stop-color="#4c3d50"/><stop offset="1" stop-color="#756679"/></linearGradient><radialGradient id="radial-gradient" cx="42.2" cy="42.04" r="32.86" gradientUnits="userSpaceOnUse"><stop offset="0" stop-color="#6d04a7"/><stop offset="1" stop-color="#170223"/></radialGradient></defs><g id="Layer_2" data-name="Layer 2"><path class="cls-1" d="M91.33,10.75s-25.12-3.19-80.25,0c0,0-3.18,25.12,0,80.25h.32s25.12,3.18,80.25,0c0,0,3.18-25.13,0-80.25" transform="translate(-9.17 -8.83)"/><ellipse class="cls-2" cx="82.17" cy="1.88" rx="0.69" ry="0.35"/><ellipse class="cls-2" cx="1.92" cy="1.95" rx="0.38" ry="0.41"/><ellipse class="cls-2" cx="82.49" cy="82.15" rx="0.37" ry="0.39"/><ellipse class="cls-2" cx="2.05" cy="82.2" rx="0.52" ry="0.34"/><rect class="cls-2" x="91.34" y="10.55" width="0.35" height="0.21" transform="translate(-1.32 -36.75) rotate(18.12)"/><rect class="cls-2" x="82.62" y="1.8" width="0.14" height="0.14"/><circle class="cls-3" cx="42.2" cy="42.04" r="32.86"/><path class="cls-4" d="M33.86,23.06s-8.1,22.59,0,55.62" transform="translate(-9.17 -8.83)"/><path class="cls-4" d="M68.93,78.68s8.1-22.59,0-55.62" transform="translate(-9.17 -8.83)"/><path class="cls-4" d="M36.53,30" transform="translate(-9.17 -8.83)"/><rect class="cls-5" x="25.3" y="54.36" width="34.46" height="4.04"/><rect class="cls-5" x="25.3" y="32.76" width="34.46" height="4.04"/><polygon class="cls-5" points="42.53 23.94 26.11 30.74 58.95 30.74 42.53 23.94"/><rect class="cls-5" x="28.33" y="38.82" width="4.06" height="13.52"/><rect class="cls-5" x="36.45" y="38.82" width="4.06" height="13.52"/><rect class="cls-5" x="44.56" y="38.82" width="4.06" height="13.52"/><rect class="cls-5" x="52.68" y="38.82" width="4.06" height="13.52"/></g></svg>